<svg width="284" height="52" viewBox="0 0 284 52" fill="none" xmlns="http://www.w3.org/2000/svg">
<rect x="11" y="7" width="38" height="38" fill="#86D3F4" stroke="black" stroke-width="2"/>
<path d="M78.4766 19.8418C78.3535 20.8945 77.9639 21.708 77.3076 22.2822C76.6559 22.8519 75.7878 23.1367 74.7031 23.1367C73.5273 23.1367 72.584 22.7152 71.873 21.8721C71.1667 21.029 70.8135 19.901 70.8135 18.4883V17.5312C70.8135 16.6061 70.9775 15.7926 71.3057 15.0908C71.6383 14.389 72.1077 13.8512 72.7139 13.4775C73.32 13.0993 74.0218 12.9102 74.8193 12.9102C75.8766 12.9102 76.7243 13.2064 77.3623 13.7988C78.0003 14.3867 78.3717 15.2025 78.4766 16.2461H77.1572C77.0433 15.4531 76.7949 14.8789 76.4121 14.5234C76.0339 14.168 75.5029 13.9902 74.8193 13.9902C73.9808 13.9902 73.3223 14.3001 72.8438 14.9199C72.3698 15.5397 72.1328 16.4215 72.1328 17.5654V18.5293C72.1328 19.6094 72.3584 20.4684 72.8096 21.1064C73.2607 21.7445 73.8919 22.0635 74.7031 22.0635C75.4323 22.0635 75.9906 21.8994 76.3779 21.5713C76.7699 21.2386 77.0296 20.6621 77.1572 19.8418H78.4766ZM79.7412 19.2334C79.7412 18.5088 79.8825 17.8571 80.165 17.2783C80.4521 16.6995 80.8486 16.2529 81.3545 15.9385C81.8649 15.624 82.446 15.4668 83.0977 15.4668C84.1048 15.4668 84.9183 15.8154 85.5381 16.5127C86.1624 17.21 86.4746 18.1374 86.4746 19.2949V19.3838C86.4746 20.1038 86.3356 20.751 86.0576 21.3252C85.7842 21.8949 85.39 22.3392 84.875 22.6582C84.3646 22.9772 83.7767 23.1367 83.1113 23.1367C82.1087 23.1367 81.2952 22.7881 80.6709 22.0908C80.0511 21.3936 79.7412 20.4707 79.7412 19.3223V19.2334ZM81.0127 19.3838C81.0127 20.2041 81.2018 20.8626 81.5801 21.3594C81.9629 21.8561 82.4733 22.1045 83.1113 22.1045C83.7539 22.1045 84.2643 21.8538 84.6426 21.3525C85.0208 20.8467 85.21 20.1403 85.21 19.2334C85.21 18.4222 85.0163 17.766 84.6289 17.2646C84.2461 16.7588 83.7357 16.5059 83.0977 16.5059C82.4733 16.5059 81.9697 16.7542 81.5869 17.251C81.2041 17.7477 81.0127 18.4587 81.0127 19.3838ZM92.8389 16.6494H89.4277V23H88.1562V15.6035H92.8389V16.6494ZM99.7295 15.6035V23H98.458V16.6494H95.9424L95.792 19.418C95.71 20.6895 95.4958 21.5986 95.1494 22.1455C94.8076 22.6924 94.263 22.9772 93.5156 23H93.0098V21.8857L93.3721 21.8584C93.7822 21.8128 94.0762 21.5758 94.2539 21.1475C94.4316 20.7191 94.5456 19.9261 94.5957 18.7686L94.7324 15.6035H99.7295ZM106.326 23C106.253 22.8542 106.194 22.5944 106.148 22.2207C105.561 22.8314 104.859 23.1367 104.043 23.1367C103.314 23.1367 102.715 22.9316 102.245 22.5215C101.78 22.1068 101.548 21.5827 101.548 20.9492C101.548 20.179 101.84 19.582 102.423 19.1582C103.011 18.7298 103.836 18.5156 104.897 18.5156H106.128V17.9346C106.128 17.4925 105.996 17.1416 105.731 16.8818C105.467 16.6175 105.077 16.4854 104.562 16.4854C104.111 16.4854 103.733 16.5993 103.428 16.8271C103.122 17.055 102.97 17.3307 102.97 17.6543H101.698C101.698 17.2852 101.828 16.9297 102.088 16.5879C102.352 16.2415 102.708 15.9681 103.154 15.7676C103.605 15.5671 104.1 15.4668 104.638 15.4668C105.49 15.4668 106.158 15.681 106.641 16.1094C107.124 16.5332 107.374 17.1188 107.393 17.8662V21.2705C107.393 21.9495 107.479 22.4896 107.652 22.8906V23H106.326ZM104.228 22.0361C104.624 22.0361 105 21.9336 105.355 21.7285C105.711 21.5234 105.968 21.2568 106.128 20.9287V19.4111H105.137C103.587 19.4111 102.812 19.8646 102.812 20.7715C102.812 21.168 102.945 21.4779 103.209 21.7012C103.473 21.9245 103.813 22.0361 104.228 22.0361ZM112.342 22.1045C112.793 22.1045 113.187 21.9678 113.524 21.6943C113.862 21.4209 114.049 21.0791 114.085 20.6689H115.281C115.258 21.0928 115.113 21.4961 114.844 21.8789C114.575 22.2617 114.215 22.5671 113.764 22.7949C113.317 23.0228 112.843 23.1367 112.342 23.1367C111.335 23.1367 110.533 22.8018 109.936 22.1318C109.343 21.4574 109.047 20.5368 109.047 19.3701V19.1582C109.047 18.4382 109.179 17.7979 109.443 17.2373C109.708 16.6768 110.086 16.2415 110.578 15.9316C111.075 15.6217 111.66 15.4668 112.335 15.4668C113.164 15.4668 113.853 15.7152 114.399 16.2119C114.951 16.7087 115.245 17.3535 115.281 18.1465H114.085C114.049 17.668 113.866 17.276 113.538 16.9707C113.215 16.6608 112.813 16.5059 112.335 16.5059C111.692 16.5059 111.193 16.7383 110.838 17.2031C110.487 17.6634 110.312 18.3311 110.312 19.2061V19.4453C110.312 20.2975 110.487 20.9538 110.838 21.4141C111.189 21.8743 111.69 22.1045 112.342 22.1045ZM121.488 15.6035H122.753V23H121.488V17.6064L118.077 23H116.812V15.6035H118.077V21.0039L121.488 15.6035ZM127.853 23.1367C126.85 23.1367 126.034 22.8086 125.405 22.1523C124.776 21.4915 124.462 20.6097 124.462 19.5068V19.2744C124.462 18.5407 124.601 17.8867 124.879 17.3125C125.161 16.7337 125.553 16.2826 126.055 15.959C126.561 15.6309 127.107 15.4668 127.695 15.4668C128.657 15.4668 129.404 15.7835 129.938 16.417C130.471 17.0505 130.737 17.9574 130.737 19.1377V19.6641H125.727C125.745 20.3932 125.957 20.9834 126.362 21.4346C126.772 21.8812 127.292 22.1045 127.921 22.1045C128.368 22.1045 128.746 22.0133 129.056 21.8311C129.366 21.6488 129.637 21.4072 129.869 21.1064L130.642 21.708C130.022 22.6605 129.092 23.1367 127.853 23.1367ZM127.695 16.5059C127.185 16.5059 126.757 16.6927 126.41 17.0664C126.064 17.4355 125.85 17.9551 125.768 18.625H129.473V18.5293C129.436 17.8867 129.263 17.39 128.953 17.0391C128.643 16.6836 128.224 16.5059 127.695 16.5059ZM141.723 23H140.458V19.8418H137.061V23H135.789V15.6035H137.061V18.8096H140.458V15.6035H141.723V23ZM148.326 23C148.253 22.8542 148.194 22.5944 148.148 22.2207C147.561 22.8314 146.859 23.1367 146.043 23.1367C145.314 23.1367 144.715 22.9316 144.245 22.5215C143.78 22.1068 143.548 21.5827 143.548 20.9492C143.548 20.179 143.84 19.582 144.423 19.1582C145.011 18.7298 145.836 18.5156 146.897 18.5156H148.128V17.9346C148.128 17.4925 147.996 17.1416 147.731 16.8818C147.467 16.6175 147.077 16.4854 146.562 16.4854C146.111 16.4854 145.733 16.5993 145.428 16.8271C145.122 17.055 144.97 17.3307 144.97 17.6543H143.698C143.698 17.2852 143.828 16.9297 144.088 16.5879C144.352 16.2415 144.708 15.9681 145.154 15.7676C145.605 15.5671 146.1 15.4668 146.638 15.4668C147.49 15.4668 148.158 15.681 148.641 16.1094C149.124 16.5332 149.374 17.1188 149.393 17.8662V21.2705C149.393 21.9495 149.479 22.4896 149.652 22.8906V23H148.326ZM146.228 22.0361C146.624 22.0361 147 21.9336 147.355 21.7285C147.711 21.5234 147.968 21.2568 148.128 20.9287V19.4111H147.137C145.587 19.4111 144.812 19.8646 144.812 20.7715C144.812 21.168 144.945 21.4779 145.209 21.7012C145.473 21.9245 145.813 22.0361 146.228 22.0361ZM154.513 19.2334C154.513 18.5088 154.654 17.8571 154.937 17.2783C155.224 16.6995 155.62 16.2529 156.126 15.9385C156.636 15.624 157.217 15.4668 157.869 15.4668C158.876 15.4668 159.69 15.8154 160.31 16.5127C160.934 17.21 161.246 18.1374 161.246 19.2949V19.3838C161.246 20.1038 161.107 20.751 160.829 21.3252C160.556 21.8949 160.161 22.3392 159.646 22.6582C159.136 22.9772 158.548 23.1367 157.883 23.1367C156.88 23.1367 156.067 22.7881 155.442 22.0908C154.823 21.3936 154.513 20.4707 154.513 19.3223V19.2334ZM155.784 19.3838C155.784 20.2041 155.973 20.8626 156.352 21.3594C156.734 21.8561 157.245 22.1045 157.883 22.1045C158.525 22.1045 159.036 21.8538 159.414 21.3525C159.792 20.8467 159.981 20.1403 159.981 19.2334C159.981 18.4222 159.788 17.766 159.4 17.2646C159.018 16.7588 158.507 16.5059 157.869 16.5059C157.245 16.5059 156.741 16.7542 156.358 17.251C155.976 17.7477 155.784 18.4587 155.784 19.3838ZM166.079 16.0273C167.009 16.0273 167.752 16.3395 168.308 16.9639C168.868 17.5837 169.148 18.4017 169.148 19.418V19.5342C169.148 20.2314 169.014 20.8558 168.745 21.4072C168.476 21.9541 168.089 22.3802 167.583 22.6855C167.082 22.9863 166.503 23.1367 165.847 23.1367C164.853 23.1367 164.053 22.8063 163.447 22.1455C162.841 21.4801 162.538 20.5892 162.538 19.4727V18.8574C162.538 17.3034 162.825 16.0684 163.399 15.1523C163.978 14.2363 164.83 13.6781 165.956 13.4775C166.594 13.3636 167.025 13.2246 167.248 13.0605C167.471 12.8965 167.583 12.6709 167.583 12.3838H168.622C168.622 12.9535 168.492 13.3978 168.232 13.7168C167.977 14.0358 167.567 14.2614 167.002 14.3936L166.059 14.6055C165.307 14.7832 164.742 15.084 164.363 15.5078C163.99 15.9271 163.746 16.4876 163.632 17.1895C164.302 16.4147 165.118 16.0273 166.079 16.0273ZM165.833 17.0664C165.213 17.0664 164.721 17.276 164.356 17.6953C163.992 18.11 163.81 18.6865 163.81 19.4248V19.5342C163.81 20.3271 163.992 20.9561 164.356 21.4209C164.726 21.8812 165.222 22.1113 165.847 22.1113C166.476 22.1113 166.972 21.8789 167.337 21.4141C167.701 20.9492 167.884 20.2702 167.884 19.377C167.884 18.6797 167.699 18.1214 167.33 17.7021C166.965 17.2783 166.466 17.0664 165.833 17.0664ZM176.695 19.3838C176.695 20.5094 176.438 21.4163 175.923 22.1045C175.408 22.7926 174.711 23.1367 173.831 23.1367C172.933 23.1367 172.227 22.8519 171.712 22.2822V25.8438H170.447V15.6035H171.603L171.664 16.4238C172.179 15.7858 172.895 15.4668 173.811 15.4668C174.699 15.4668 175.401 15.8018 175.916 16.4717C176.436 17.1416 176.695 18.0736 176.695 19.2676V19.3838ZM175.431 19.2402C175.431 18.4062 175.253 17.7477 174.897 17.2646C174.542 16.7816 174.054 16.54 173.435 16.54C172.669 16.54 172.095 16.8796 171.712 17.5586V21.0928C172.09 21.7673 172.669 22.1045 173.448 22.1045C174.054 22.1045 174.535 21.8652 174.891 21.3867C175.251 20.9036 175.431 20.1882 175.431 19.2402ZM182.875 23C182.802 22.8542 182.743 22.5944 182.697 22.2207C182.109 22.8314 181.408 23.1367 180.592 23.1367C179.863 23.1367 179.263 22.9316 178.794 22.5215C178.329 22.1068 178.097 21.5827 178.097 20.9492C178.097 20.179 178.388 19.582 178.972 19.1582C179.56 18.7298 180.384 18.5156 181.446 18.5156H182.677V17.9346C182.677 17.4925 182.545 17.1416 182.28 16.8818C182.016 16.6175 181.626 16.4854 181.111 16.4854C180.66 16.4854 180.282 16.5993 179.977 16.8271C179.671 17.055 179.519 17.3307 179.519 17.6543H178.247C178.247 17.2852 178.377 16.9297 178.637 16.5879C178.901 16.2415 179.257 15.9681 179.703 15.7676C180.154 15.5671 180.649 15.4668 181.187 15.4668C182.039 15.4668 182.706 15.681 183.189 16.1094C183.673 16.5332 183.923 17.1188 183.941 17.8662V21.2705C183.941 21.9495 184.028 22.4896 184.201 22.8906V23H182.875ZM180.776 22.0361C181.173 22.0361 181.549 21.9336 181.904 21.7285C182.26 21.5234 182.517 21.2568 182.677 20.9287V19.4111H181.686C180.136 19.4111 179.361 19.8646 179.361 20.7715C179.361 21.168 179.493 21.4779 179.758 21.7012C180.022 21.9245 180.362 22.0361 180.776 22.0361ZM189.171 16.0273C190.101 16.0273 190.843 16.3395 191.399 16.9639C191.96 17.5837 192.24 18.4017 192.24 19.418V19.5342C192.24 20.2314 192.106 20.8558 191.837 21.4072C191.568 21.9541 191.181 22.3802 190.675 22.6855C190.174 22.9863 189.595 23.1367 188.938 23.1367C187.945 23.1367 187.145 22.8063 186.539 22.1455C185.933 21.4801 185.63 20.5892 185.63 19.4727V18.8574C185.63 17.3034 185.917 16.0684 186.491 15.1523C187.07 14.2363 187.922 13.6781 189.048 13.4775C189.686 13.3636 190.117 13.2246 190.34 13.0605C190.563 12.8965 190.675 12.6709 190.675 12.3838H191.714C191.714 12.9535 191.584 13.3978 191.324 13.7168C191.069 14.0358 190.659 14.2614 190.094 14.3936L189.15 14.6055C188.398 14.7832 187.833 15.084 187.455 15.5078C187.081 15.9271 186.838 16.4876 186.724 17.1895C187.394 16.4147 188.209 16.0273 189.171 16.0273ZM188.925 17.0664C188.305 17.0664 187.813 17.276 187.448 17.6953C187.084 18.11 186.901 18.6865 186.901 19.4248V19.5342C186.901 20.3271 187.084 20.9561 187.448 21.4209C187.817 21.8812 188.314 22.1113 188.938 22.1113C189.567 22.1113 190.064 21.8789 190.429 21.4141C190.793 20.9492 190.976 20.2702 190.976 19.377C190.976 18.6797 190.791 18.1214 190.422 17.7021C190.057 17.2783 189.558 17.0664 188.925 17.0664ZM193.327 19.2334C193.327 18.5088 193.468 17.8571 193.751 17.2783C194.038 16.6995 194.435 16.2529 194.94 15.9385C195.451 15.624 196.032 15.4668 196.684 15.4668C197.691 15.4668 198.504 15.8154 199.124 16.5127C199.748 17.21 200.061 18.1374 200.061 19.2949V19.3838C200.061 20.1038 199.922 20.751 199.644 21.3252C199.37 21.8949 198.976 22.3392 198.461 22.6582C197.951 22.9772 197.363 23.1367 196.697 23.1367C195.695 23.1367 194.881 22.7881 194.257 22.0908C193.637 21.3936 193.327 20.4707 193.327 19.3223V19.2334ZM194.599 19.3838C194.599 20.2041 194.788 20.8626 195.166 21.3594C195.549 21.8561 196.059 22.1045 196.697 22.1045C197.34 22.1045 197.85 21.8538 198.229 21.3525C198.607 20.8467 198.796 20.1403 198.796 19.2334C198.796 18.4222 198.602 17.766 198.215 17.2646C197.832 16.7588 197.322 16.5059 196.684 16.5059C196.059 16.5059 195.556 16.7542 195.173 17.251C194.79 17.7477 194.599 18.4587 194.599 19.3838ZM206.992 16.6289H204.511V23H203.246V16.6289H200.812V15.6035H206.992V16.6289ZM210.526 19.8486H209.604V23H208.332V15.6035H209.604V18.7344H210.431L212.919 15.6035H214.45L211.524 19.1582L214.696 23H213.09L210.526 19.8486ZM218.203 21.1475L219.926 15.6035H221.279L218.306 24.1416C217.845 25.3721 217.114 25.9873 216.111 25.9873L215.872 25.9668L215.4 25.8779V24.8525L215.742 24.8799C216.171 24.8799 216.503 24.7933 216.74 24.6201C216.982 24.4469 217.18 24.1302 217.335 23.6699L217.615 22.918L214.977 15.6035H216.357L218.203 21.1475ZM77.0068 39H75.7422V32.6494H72.3379V39H71.0664V31.6035H77.0068V39ZM82.1064 39.1367C81.1038 39.1367 80.2881 38.8086 79.6592 38.1523C79.0303 37.4915 78.7158 36.6097 78.7158 35.5068V35.2744C78.7158 34.5407 78.8548 33.8867 79.1328 33.3125C79.4154 32.7337 79.8073 32.2826 80.3086 31.959C80.8145 31.6309 81.3613 31.4668 81.9492 31.4668C82.9108 31.4668 83.6582 31.7835 84.1914 32.417C84.7246 33.0505 84.9912 33.9574 84.9912 35.1377V35.6641H79.9805C79.9987 36.3932 80.2106 36.9834 80.6162 37.4346C81.0264 37.8812 81.5459 38.1045 82.1748 38.1045C82.6214 38.1045 82.9997 38.0133 83.3096 37.8311C83.6195 37.6488 83.8906 37.4072 84.123 37.1064L84.8955 37.708C84.2757 38.6605 83.346 39.1367 82.1064 39.1367ZM81.9492 32.5059C81.4388 32.5059 81.0104 32.6927 80.6641 33.0664C80.3177 33.4355 80.1035 33.9551 80.0215 34.625H83.7266V34.5293C83.6901 33.8867 83.5169 33.39 83.207 33.0391C82.8971 32.6836 82.4779 32.5059 81.9492 32.5059ZM92.709 35.3838C92.709 36.5094 92.4515 37.4163 91.9365 38.1045C91.4215 38.7926 90.7243 39.1367 89.8447 39.1367C88.9469 39.1367 88.2406 38.8519 87.7256 38.2822V41.8438H86.4609V31.6035H87.6162L87.6777 32.4238C88.1927 31.7858 88.9082 31.4668 89.8242 31.4668C90.7129 31.4668 91.4147 31.8018 91.9297 32.4717C92.4492 33.1416 92.709 34.0736 92.709 35.2676V35.3838ZM91.4443 35.2402C91.4443 34.4062 91.2666 33.7477 90.9111 33.2646C90.5557 32.7816 90.068 32.54 89.4482 32.54C88.6826 32.54 88.1084 32.8796 87.7256 33.5586V37.0928C88.1038 37.7673 88.6826 38.1045 89.4619 38.1045C90.068 38.1045 90.5488 37.8652 90.9043 37.3867C91.2643 36.9036 91.4443 36.1882 91.4443 35.2402ZM97.2891 38.1045C97.7402 38.1045 98.1344 37.9678 98.4717 37.6943C98.8089 37.4209 98.9958 37.0791 99.0322 36.6689H100.229C100.206 37.0928 100.06 37.4961 99.791 37.8789C99.5221 38.2617 99.1621 38.5671 98.7109 38.7949C98.2643 39.0228 97.7904 39.1367 97.2891 39.1367C96.2819 39.1367 95.4798 38.8018 94.8828 38.1318C94.2904 37.4574 93.9941 36.5368 93.9941 35.3701V35.1582C93.9941 34.4382 94.1263 33.7979 94.3906 33.2373C94.6549 32.6768 95.0332 32.2415 95.5254 31.9316C96.0221 31.6217 96.6077 31.4668 97.2822 31.4668C98.1117 31.4668 98.7998 31.7152 99.3467 32.2119C99.8981 32.7087 100.192 33.3535 100.229 34.1465H99.0322C98.9958 33.668 98.8135 33.276 98.4854 32.9707C98.1618 32.6608 97.7607 32.5059 97.2822 32.5059C96.6396 32.5059 96.1406 32.7383 95.7852 33.2031C95.4342 33.6634 95.2588 34.3311 95.2588 35.2061V35.4453C95.2588 36.2975 95.4342 36.9538 95.7852 37.4141C96.1361 37.8743 96.6374 38.1045 97.2891 38.1045ZM101.315 35.2334C101.315 34.5088 101.457 33.8571 101.739 33.2783C102.026 32.6995 102.423 32.2529 102.929 31.9385C103.439 31.624 104.02 31.4668 104.672 31.4668C105.679 31.4668 106.493 31.8154 107.112 32.5127C107.737 33.21 108.049 34.1374 108.049 35.2949V35.3838C108.049 36.1038 107.91 36.751 107.632 37.3252C107.358 37.8949 106.964 38.3392 106.449 38.6582C105.939 38.9772 105.351 39.1367 104.686 39.1367C103.683 39.1367 102.869 38.7881 102.245 38.0908C101.625 37.3936 101.315 36.4707 101.315 35.3223V35.2334ZM102.587 35.3838C102.587 36.2041 102.776 36.8626 103.154 37.3594C103.537 37.8561 104.048 38.1045 104.686 38.1045C105.328 38.1045 105.839 37.8538 106.217 37.3525C106.595 36.8467 106.784 36.1403 106.784 35.2334C106.784 34.4222 106.59 33.766 106.203 33.2646C105.82 32.7588 105.31 32.5059 104.672 32.5059C104.048 32.5059 103.544 32.7542 103.161 33.251C102.778 33.7477 102.587 34.4587 102.587 35.3838ZM115.678 39H114.413V35.8418H111.016V39H109.744V31.6035H111.016V34.8096H114.413V31.6035H115.678V39ZM122.281 39C122.208 38.8542 122.149 38.5944 122.104 38.2207C121.516 38.8314 120.814 39.1367 119.998 39.1367C119.269 39.1367 118.67 38.9316 118.2 38.5215C117.735 38.1068 117.503 37.5827 117.503 36.9492C117.503 36.179 117.795 35.582 118.378 35.1582C118.966 34.7298 119.791 34.5156 120.853 34.5156H122.083V33.9346C122.083 33.4925 121.951 33.1416 121.687 32.8818C121.422 32.6175 121.033 32.4854 120.518 32.4854C120.066 32.4854 119.688 32.5993 119.383 32.8271C119.077 33.055 118.925 33.3307 118.925 33.6543H117.653C117.653 33.2852 117.783 32.9297 118.043 32.5879C118.307 32.2415 118.663 31.9681 119.109 31.7676C119.561 31.5671 120.055 31.4668 120.593 31.4668C121.445 31.4668 122.113 31.681 122.596 32.1094C123.079 32.5332 123.329 33.1188 123.348 33.8662V37.2705C123.348 37.9495 123.434 38.4896 123.607 38.8906V39H122.281ZM120.183 38.0361C120.579 38.0361 120.955 37.9336 121.311 37.7285C121.666 37.5234 121.924 37.2568 122.083 36.9287V35.4111H121.092C119.542 35.4111 118.768 35.8646 118.768 36.7715C118.768 37.168 118.9 37.4779 119.164 37.7012C119.428 37.9245 119.768 38.0361 120.183 38.0361ZM131.394 31.6035V39H130.122V32.6494H127.606L127.456 35.418C127.374 36.6895 127.16 37.5986 126.813 38.1455C126.472 38.6924 125.927 38.9772 125.18 39H124.674V37.8857L125.036 37.8584C125.446 37.8128 125.74 37.5758 125.918 37.1475C126.096 36.7191 126.21 35.9261 126.26 34.7686L126.396 31.6035H131.394ZM134.805 34.1533H136.726C137.564 34.1624 138.227 34.3812 138.715 34.8096C139.202 35.238 139.446 35.819 139.446 36.5527C139.446 37.291 139.196 37.8835 138.694 38.3301C138.193 38.7767 137.519 39 136.671 39H133.54V31.6035H134.805V34.1533ZM134.805 35.1855V37.9678H136.685C137.159 37.9678 137.525 37.847 137.785 37.6055C138.045 37.3594 138.175 37.0244 138.175 36.6006C138.175 36.1904 138.047 35.8555 137.792 35.5957C137.541 35.3314 137.188 35.1947 136.732 35.1855H134.805ZM147.068 39H145.804V35.8418H142.406V39H141.135V31.6035H142.406V34.8096H145.804V31.6035H147.068V39ZM150.486 34.1533H152.407C153.246 34.1624 153.909 34.3812 154.396 34.8096C154.884 35.238 155.128 35.819 155.128 36.5527C155.128 37.291 154.877 37.8835 154.376 38.3301C153.875 38.7767 153.2 39 152.353 39H149.222V31.6035H150.486V34.1533ZM157.767 39H156.495V31.6035H157.767V39ZM150.486 35.1855V37.9678H152.366C152.84 37.9678 153.207 37.847 153.467 37.6055C153.727 37.3594 153.856 37.0244 153.856 36.6006C153.856 36.1904 153.729 35.8555 153.474 35.5957C153.223 35.3314 152.87 35.1947 152.414 35.1855H150.486ZM162.456 34.3037L164.097 31.6035H165.573L163.153 35.2607L165.648 39H164.186L162.477 36.2314L160.768 39H159.298L161.793 35.2607L159.373 31.6035H160.836L162.456 34.3037ZM170.331 37.9678L170.769 37.4277C171.261 36.7897 171.541 35.8327 171.609 34.5566L171.726 31.6035H176.49V37.9678H177.44V41.1738H176.176V39H171.015V41.1738H169.75L169.757 37.9678H170.331ZM171.828 37.9678H175.226V32.7725H172.949L172.874 34.5361C172.797 36.0081 172.448 37.152 171.828 37.9678ZM183.408 39C183.335 38.8542 183.276 38.5944 183.23 38.2207C182.643 38.8314 181.941 39.1367 181.125 39.1367C180.396 39.1367 179.797 38.9316 179.327 38.5215C178.862 38.1068 178.63 37.5827 178.63 36.9492C178.63 36.179 178.922 35.582 179.505 35.1582C180.093 34.7298 180.918 34.5156 181.979 34.5156H183.21V33.9346C183.21 33.4925 183.078 33.1416 182.813 32.8818C182.549 32.6175 182.16 32.4854 181.645 32.4854C181.193 32.4854 180.815 32.5993 180.51 32.8271C180.204 33.055 180.052 33.3307 180.052 33.6543H178.78C178.78 33.2852 178.91 32.9297 179.17 32.5879C179.434 32.2415 179.79 31.9681 180.236 31.7676C180.688 31.5671 181.182 31.4668 181.72 31.4668C182.572 31.4668 183.24 31.681 183.723 32.1094C184.206 32.5332 184.456 33.1188 184.475 33.8662V37.2705C184.475 37.9495 184.561 38.4896 184.734 38.8906V39H183.408ZM181.31 38.0361C181.706 38.0361 182.082 37.9336 182.438 37.7285C182.793 37.5234 183.05 37.2568 183.21 36.9287V35.4111H182.219C180.669 35.4111 179.895 35.8646 179.895 36.7715C179.895 37.168 180.027 37.4779 180.291 37.7012C180.555 37.9245 180.895 38.0361 181.31 38.0361ZM192.5 39H191.235V35.8418H187.838V39H186.566V31.6035H187.838V34.8096H191.235V31.6035H192.5V39ZM200.58 39H199.315V35.8418H195.918V39H194.646V31.6035H195.918V34.8096H199.315V31.6035H200.58V39ZM203.998 34.1533H205.919C206.757 34.1624 207.421 34.3812 207.908 34.8096C208.396 35.238 208.64 35.819 208.64 36.5527C208.64 37.291 208.389 37.8835 207.888 38.3301C207.386 38.7767 206.712 39 205.864 39H202.733V31.6035H203.998V34.1533ZM211.278 39H210.007V31.6035H211.278V39ZM203.998 35.1855V37.9678H205.878C206.352 37.9678 206.719 37.847 206.979 37.6055C207.238 37.3594 207.368 37.0244 207.368 36.6006C207.368 36.1904 207.241 35.8555 206.985 35.5957C206.735 35.3314 206.382 35.1947 205.926 35.1855H203.998ZM215.968 34.3037L217.608 31.6035H219.085L216.665 35.2607L219.16 39H217.697L215.988 36.2314L214.279 39H212.81L215.305 35.2607L212.885 31.6035H214.348L215.968 34.3037Z" fill="#565656"/>
</svg>
