<?xml version="1.0" encoding="utf-8"?>
<svg xmlns="http://www.w3.org/2000/svg" xmlns:xlink="http://www.w3.org/1999/xlink" style="margin: auto; background: none; display: block; shape-rendering: auto;" width="50px" height="50px" viewBox="0 0 100 100" preserveAspectRatio="xMidYMid">
<g transform="rotate(0 50 50)">
  <rect x="46.5" y="34.5" rx="3.5" ry="4.5" width="7" height="9" fill="#000000">
    <animate attributeName="opacity" values="1;0" keyTimes="0;1" dur="1s" begin="-0.9841269841269841s" repeatCount="indefinite"></animate>
  </rect>
</g><g transform="rotate(5.714285714285714 50 50)">
  <rect x="46.5" y="34.5" rx="3.5" ry="4.5" width="7" height="9" fill="#000000">
    <animate attributeName="opacity" values="1;0" keyTimes="0;1" dur="1s" begin="-0.9682539682539683s" repeatCount="indefinite"></animate>
  </rect>
</g><g transform="rotate(11.428571428571429 50 50)">
  <rect x="46.5" y="34.5" rx="3.5" ry="4.5" width="7" height="9" fill="#000000">
    <animate attributeName="opacity" values="1;0" keyTimes="0;1" dur="1s" begin="-0.9523809523809523s" repeatCount="indefinite"></animate>
  </rect>
</g><g transform="rotate(17.142857142857142 50 50)">
  <rect x="46.5" y="34.5" rx="3.5" ry="4.5" width="7" height="9" fill="#000000">
    <animate attributeName="opacity" values="1;0" keyTimes="0;1" dur="1s" begin="-0.9365079365079365s" repeatCount="indefinite"></animate>
  </rect>
</g><g transform="rotate(22.857142857142858 50 50)">
  <rect x="46.5" y="34.5" rx="3.5" ry="4.5" width="7" height="9" fill="#000000">
    <animate attributeName="opacity" values="1;0" keyTimes="0;1" dur="1s" begin="-0.9206349206349206s" repeatCount="indefinite"></animate>
  </rect>
</g><g transform="rotate(28.571428571428573 50 50)">
  <rect x="46.5" y="34.5" rx="3.5" ry="4.5" width="7" height="9" fill="#000000">
    <animate attributeName="opacity" values="1;0" keyTimes="0;1" dur="1s" begin="-0.9047619047619048s" repeatCount="indefinite"></animate>
  </rect>
</g><g transform="rotate(34.285714285714285 50 50)">
  <rect x="46.5" y="34.5" rx="3.5" ry="4.5" width="7" height="9" fill="#000000">
    <animate attributeName="opacity" values="1;0" keyTimes="0;1" dur="1s" begin="-0.8888888888888888s" repeatCount="indefinite"></animate>
  </rect>
</g><g transform="rotate(40 50 50)">
  <rect x="46.5" y="34.5" rx="3.5" ry="4.5" width="7" height="9" fill="#000000">
    <animate attributeName="opacity" values="1;0" keyTimes="0;1" dur="1s" begin="-0.873015873015873s" repeatCount="indefinite"></animate>
  </rect>
</g><g transform="rotate(45.714285714285715 50 50)">
  <rect x="46.5" y="34.5" rx="3.5" ry="4.5" width="7" height="9" fill="#000000">
    <animate attributeName="opacity" values="1;0" keyTimes="0;1" dur="1s" begin="-0.8571428571428571s" repeatCount="indefinite"></animate>
  </rect>
</g><g transform="rotate(51.42857142857143 50 50)">
  <rect x="46.5" y="34.5" rx="3.5" ry="4.5" width="7" height="9" fill="#000000">
    <animate attributeName="opacity" values="1;0" keyTimes="0;1" dur="1s" begin="-0.8412698412698413s" repeatCount="indefinite"></animate>
  </rect>
</g><g transform="rotate(57.142857142857146 50 50)">
  <rect x="46.5" y="34.5" rx="3.5" ry="4.5" width="7" height="9" fill="#000000">
    <animate attributeName="opacity" values="1;0" keyTimes="0;1" dur="1s" begin="-0.8253968253968254s" repeatCount="indefinite"></animate>
  </rect>
</g><g transform="rotate(62.857142857142854 50 50)">
  <rect x="46.5" y="34.5" rx="3.5" ry="4.5" width="7" height="9" fill="#000000">
    <animate attributeName="opacity" values="1;0" keyTimes="0;1" dur="1s" begin="-0.8095238095238095s" repeatCount="indefinite"></animate>
  </rect>
</g><g transform="rotate(68.57142857142857 50 50)">
  <rect x="46.5" y="34.5" rx="3.5" ry="4.5" width="7" height="9" fill="#000000">
    <animate attributeName="opacity" values="1;0" keyTimes="0;1" dur="1s" begin="-0.7936507936507936s" repeatCount="indefinite"></animate>
  </rect>
</g><g transform="rotate(74.28571428571429 50 50)">
  <rect x="46.5" y="34.5" rx="3.5" ry="4.5" width="7" height="9" fill="#000000">
    <animate attributeName="opacity" values="1;0" keyTimes="0;1" dur="1s" begin="-0.7777777777777778s" repeatCount="indefinite"></animate>
  </rect>
</g><g transform="rotate(80 50 50)">
  <rect x="46.5" y="34.5" rx="3.5" ry="4.5" width="7" height="9" fill="#000000">
    <animate attributeName="opacity" values="1;0" keyTimes="0;1" dur="1s" begin="-0.7619047619047619s" repeatCount="indefinite"></animate>
  </rect>
</g><g transform="rotate(85.71428571428571 50 50)">
  <rect x="46.5" y="34.5" rx="3.5" ry="4.5" width="7" height="9" fill="#000000">
    <animate attributeName="opacity" values="1;0" keyTimes="0;1" dur="1s" begin="-0.746031746031746s" repeatCount="indefinite"></animate>
  </rect>
</g><g transform="rotate(91.42857142857143 50 50)">
  <rect x="46.5" y="34.5" rx="3.5" ry="4.5" width="7" height="9" fill="#000000">
    <animate attributeName="opacity" values="1;0" keyTimes="0;1" dur="1s" begin="-0.7301587301587301s" repeatCount="indefinite"></animate>
  </rect>
</g><g transform="rotate(97.14285714285714 50 50)">
  <rect x="46.5" y="34.5" rx="3.5" ry="4.5" width="7" height="9" fill="#000000">
    <animate attributeName="opacity" values="1;0" keyTimes="0;1" dur="1s" begin="-0.7142857142857143s" repeatCount="indefinite"></animate>
  </rect>
</g><g transform="rotate(102.85714285714286 50 50)">
  <rect x="46.5" y="34.5" rx="3.5" ry="4.5" width="7" height="9" fill="#000000">
    <animate attributeName="opacity" values="1;0" keyTimes="0;1" dur="1s" begin="-0.6984126984126984s" repeatCount="indefinite"></animate>
  </rect>
</g><g transform="rotate(108.57142857142857 50 50)">
  <rect x="46.5" y="34.5" rx="3.5" ry="4.5" width="7" height="9" fill="#000000">
    <animate attributeName="opacity" values="1;0" keyTimes="0;1" dur="1s" begin="-0.6825396825396826s" repeatCount="indefinite"></animate>
  </rect>
</g><g transform="rotate(114.28571428571429 50 50)">
  <rect x="46.5" y="34.5" rx="3.5" ry="4.5" width="7" height="9" fill="#000000">
    <animate attributeName="opacity" values="1;0" keyTimes="0;1" dur="1s" begin="-0.6666666666666666s" repeatCount="indefinite"></animate>
  </rect>
</g><g transform="rotate(120 50 50)">
  <rect x="46.5" y="34.5" rx="3.5" ry="4.5" width="7" height="9" fill="#000000">
    <animate attributeName="opacity" values="1;0" keyTimes="0;1" dur="1s" begin="-0.6507936507936508s" repeatCount="indefinite"></animate>
  </rect>
</g><g transform="rotate(125.71428571428571 50 50)">
  <rect x="46.5" y="34.5" rx="3.5" ry="4.5" width="7" height="9" fill="#000000">
    <animate attributeName="opacity" values="1;0" keyTimes="0;1" dur="1s" begin="-0.6349206349206349s" repeatCount="indefinite"></animate>
  </rect>
</g><g transform="rotate(131.42857142857142 50 50)">
  <rect x="46.5" y="34.5" rx="3.5" ry="4.5" width="7" height="9" fill="#000000">
    <animate attributeName="opacity" values="1;0" keyTimes="0;1" dur="1s" begin="-0.6190476190476191s" repeatCount="indefinite"></animate>
  </rect>
</g><g transform="rotate(137.14285714285714 50 50)">
  <rect x="46.5" y="34.5" rx="3.5" ry="4.5" width="7" height="9" fill="#000000">
    <animate attributeName="opacity" values="1;0" keyTimes="0;1" dur="1s" begin="-0.6031746031746031s" repeatCount="indefinite"></animate>
  </rect>
</g><g transform="rotate(142.85714285714286 50 50)">
  <rect x="46.5" y="34.5" rx="3.5" ry="4.5" width="7" height="9" fill="#000000">
    <animate attributeName="opacity" values="1;0" keyTimes="0;1" dur="1s" begin="-0.5873015873015873s" repeatCount="indefinite"></animate>
  </rect>
</g><g transform="rotate(148.57142857142858 50 50)">
  <rect x="46.5" y="34.5" rx="3.5" ry="4.5" width="7" height="9" fill="#000000">
    <animate attributeName="opacity" values="1;0" keyTimes="0;1" dur="1s" begin="-0.5714285714285714s" repeatCount="indefinite"></animate>
  </rect>
</g><g transform="rotate(154.28571428571428 50 50)">
  <rect x="46.5" y="34.5" rx="3.5" ry="4.5" width="7" height="9" fill="#000000">
    <animate attributeName="opacity" values="1;0" keyTimes="0;1" dur="1s" begin="-0.5555555555555556s" repeatCount="indefinite"></animate>
  </rect>
</g><g transform="rotate(160 50 50)">
  <rect x="46.5" y="34.5" rx="3.5" ry="4.5" width="7" height="9" fill="#000000">
    <animate attributeName="opacity" values="1;0" keyTimes="0;1" dur="1s" begin="-0.5396825396825397s" repeatCount="indefinite"></animate>
  </rect>
</g><g transform="rotate(165.71428571428572 50 50)">
  <rect x="46.5" y="34.5" rx="3.5" ry="4.5" width="7" height="9" fill="#000000">
    <animate attributeName="opacity" values="1;0" keyTimes="0;1" dur="1s" begin="-0.5238095238095238s" repeatCount="indefinite"></animate>
  </rect>
</g><g transform="rotate(171.42857142857142 50 50)">
  <rect x="46.5" y="34.5" rx="3.5" ry="4.5" width="7" height="9" fill="#000000">
    <animate attributeName="opacity" values="1;0" keyTimes="0;1" dur="1s" begin="-0.5079365079365079s" repeatCount="indefinite"></animate>
  </rect>
</g><g transform="rotate(177.14285714285714 50 50)">
  <rect x="46.5" y="34.5" rx="3.5" ry="4.5" width="7" height="9" fill="#000000">
    <animate attributeName="opacity" values="1;0" keyTimes="0;1" dur="1s" begin="-0.49206349206349204s" repeatCount="indefinite"></animate>
  </rect>
</g><g transform="rotate(182.85714285714286 50 50)">
  <rect x="46.5" y="34.5" rx="3.5" ry="4.5" width="7" height="9" fill="#000000">
    <animate attributeName="opacity" values="1;0" keyTimes="0;1" dur="1s" begin="-0.47619047619047616s" repeatCount="indefinite"></animate>
  </rect>
</g><g transform="rotate(188.57142857142858 50 50)">
  <rect x="46.5" y="34.5" rx="3.5" ry="4.5" width="7" height="9" fill="#000000">
    <animate attributeName="opacity" values="1;0" keyTimes="0;1" dur="1s" begin="-0.4603174603174603s" repeatCount="indefinite"></animate>
  </rect>
</g><g transform="rotate(194.28571428571428 50 50)">
  <rect x="46.5" y="34.5" rx="3.5" ry="4.5" width="7" height="9" fill="#000000">
    <animate attributeName="opacity" values="1;0" keyTimes="0;1" dur="1s" begin="-0.4444444444444444s" repeatCount="indefinite"></animate>
  </rect>
</g><g transform="rotate(200 50 50)">
  <rect x="46.5" y="34.5" rx="3.5" ry="4.5" width="7" height="9" fill="#000000">
    <animate attributeName="opacity" values="1;0" keyTimes="0;1" dur="1s" begin="-0.42857142857142855s" repeatCount="indefinite"></animate>
  </rect>
</g><g transform="rotate(205.71428571428572 50 50)">
  <rect x="46.5" y="34.5" rx="3.5" ry="4.5" width="7" height="9" fill="#000000">
    <animate attributeName="opacity" values="1;0" keyTimes="0;1" dur="1s" begin="-0.4126984126984127s" repeatCount="indefinite"></animate>
  </rect>
</g><g transform="rotate(211.42857142857142 50 50)">
  <rect x="46.5" y="34.5" rx="3.5" ry="4.5" width="7" height="9" fill="#000000">
    <animate attributeName="opacity" values="1;0" keyTimes="0;1" dur="1s" begin="-0.3968253968253968s" repeatCount="indefinite"></animate>
  </rect>
</g><g transform="rotate(217.14285714285714 50 50)">
  <rect x="46.5" y="34.5" rx="3.5" ry="4.5" width="7" height="9" fill="#000000">
    <animate attributeName="opacity" values="1;0" keyTimes="0;1" dur="1s" begin="-0.38095238095238093s" repeatCount="indefinite"></animate>
  </rect>
</g><g transform="rotate(222.85714285714286 50 50)">
  <rect x="46.5" y="34.5" rx="3.5" ry="4.5" width="7" height="9" fill="#000000">
    <animate attributeName="opacity" values="1;0" keyTimes="0;1" dur="1s" begin="-0.36507936507936506s" repeatCount="indefinite"></animate>
  </rect>
</g><g transform="rotate(228.57142857142858 50 50)">
  <rect x="46.5" y="34.5" rx="3.5" ry="4.5" width="7" height="9" fill="#000000">
    <animate attributeName="opacity" values="1;0" keyTimes="0;1" dur="1s" begin="-0.3492063492063492s" repeatCount="indefinite"></animate>
  </rect>
</g><g transform="rotate(234.28571428571428 50 50)">
  <rect x="46.5" y="34.5" rx="3.5" ry="4.5" width="7" height="9" fill="#000000">
    <animate attributeName="opacity" values="1;0" keyTimes="0;1" dur="1s" begin="-0.3333333333333333s" repeatCount="indefinite"></animate>
  </rect>
</g><g transform="rotate(240 50 50)">
  <rect x="46.5" y="34.5" rx="3.5" ry="4.5" width="7" height="9" fill="#000000">
    <animate attributeName="opacity" values="1;0" keyTimes="0;1" dur="1s" begin="-0.31746031746031744s" repeatCount="indefinite"></animate>
  </rect>
</g><g transform="rotate(245.71428571428572 50 50)">
  <rect x="46.5" y="34.5" rx="3.5" ry="4.5" width="7" height="9" fill="#000000">
    <animate attributeName="opacity" values="1;0" keyTimes="0;1" dur="1s" begin="-0.30158730158730157s" repeatCount="indefinite"></animate>
  </rect>
</g><g transform="rotate(251.42857142857142 50 50)">
  <rect x="46.5" y="34.5" rx="3.5" ry="4.5" width="7" height="9" fill="#000000">
    <animate attributeName="opacity" values="1;0" keyTimes="0;1" dur="1s" begin="-0.2857142857142857s" repeatCount="indefinite"></animate>
  </rect>
</g><g transform="rotate(257.14285714285717 50 50)">
  <rect x="46.5" y="34.5" rx="3.5" ry="4.5" width="7" height="9" fill="#000000">
    <animate attributeName="opacity" values="1;0" keyTimes="0;1" dur="1s" begin="-0.2698412698412698s" repeatCount="indefinite"></animate>
  </rect>
</g><g transform="rotate(262.85714285714283 50 50)">
  <rect x="46.5" y="34.5" rx="3.5" ry="4.5" width="7" height="9" fill="#000000">
    <animate attributeName="opacity" values="1;0" keyTimes="0;1" dur="1s" begin="-0.25396825396825395s" repeatCount="indefinite"></animate>
  </rect>
</g><g transform="rotate(268.57142857142856 50 50)">
  <rect x="46.5" y="34.5" rx="3.5" ry="4.5" width="7" height="9" fill="#000000">
    <animate attributeName="opacity" values="1;0" keyTimes="0;1" dur="1s" begin="-0.23809523809523808s" repeatCount="indefinite"></animate>
  </rect>
</g><g transform="rotate(274.2857142857143 50 50)">
  <rect x="46.5" y="34.5" rx="3.5" ry="4.5" width="7" height="9" fill="#000000">
    <animate attributeName="opacity" values="1;0" keyTimes="0;1" dur="1s" begin="-0.2222222222222222s" repeatCount="indefinite"></animate>
  </rect>
</g><g transform="rotate(280 50 50)">
  <rect x="46.5" y="34.5" rx="3.5" ry="4.5" width="7" height="9" fill="#000000">
    <animate attributeName="opacity" values="1;0" keyTimes="0;1" dur="1s" begin="-0.20634920634920634s" repeatCount="indefinite"></animate>
  </rect>
</g><g transform="rotate(285.7142857142857 50 50)">
  <rect x="46.5" y="34.5" rx="3.5" ry="4.5" width="7" height="9" fill="#000000">
    <animate attributeName="opacity" values="1;0" keyTimes="0;1" dur="1s" begin="-0.19047619047619047s" repeatCount="indefinite"></animate>
  </rect>
</g><g transform="rotate(291.42857142857144 50 50)">
  <rect x="46.5" y="34.5" rx="3.5" ry="4.5" width="7" height="9" fill="#000000">
    <animate attributeName="opacity" values="1;0" keyTimes="0;1" dur="1s" begin="-0.1746031746031746s" repeatCount="indefinite"></animate>
  </rect>
</g><g transform="rotate(297.14285714285717 50 50)">
  <rect x="46.5" y="34.5" rx="3.5" ry="4.5" width="7" height="9" fill="#000000">
    <animate attributeName="opacity" values="1;0" keyTimes="0;1" dur="1s" begin="-0.15873015873015872s" repeatCount="indefinite"></animate>
  </rect>
</g><g transform="rotate(302.85714285714283 50 50)">
  <rect x="46.5" y="34.5" rx="3.5" ry="4.5" width="7" height="9" fill="#000000">
    <animate attributeName="opacity" values="1;0" keyTimes="0;1" dur="1s" begin="-0.14285714285714285s" repeatCount="indefinite"></animate>
  </rect>
</g><g transform="rotate(308.57142857142856 50 50)">
  <rect x="46.5" y="34.5" rx="3.5" ry="4.5" width="7" height="9" fill="#000000">
    <animate attributeName="opacity" values="1;0" keyTimes="0;1" dur="1s" begin="-0.12698412698412698s" repeatCount="indefinite"></animate>
  </rect>
</g><g transform="rotate(314.2857142857143 50 50)">
  <rect x="46.5" y="34.5" rx="3.5" ry="4.5" width="7" height="9" fill="#000000">
    <animate attributeName="opacity" values="1;0" keyTimes="0;1" dur="1s" begin="-0.1111111111111111s" repeatCount="indefinite"></animate>
  </rect>
</g><g transform="rotate(320 50 50)">
  <rect x="46.5" y="34.5" rx="3.5" ry="4.5" width="7" height="9" fill="#000000">
    <animate attributeName="opacity" values="1;0" keyTimes="0;1" dur="1s" begin="-0.09523809523809523s" repeatCount="indefinite"></animate>
  </rect>
</g><g transform="rotate(325.7142857142857 50 50)">
  <rect x="46.5" y="34.5" rx="3.5" ry="4.5" width="7" height="9" fill="#000000">
    <animate attributeName="opacity" values="1;0" keyTimes="0;1" dur="1s" begin="-0.07936507936507936s" repeatCount="indefinite"></animate>
  </rect>
</g><g transform="rotate(331.42857142857144 50 50)">
  <rect x="46.5" y="34.5" rx="3.5" ry="4.5" width="7" height="9" fill="#000000">
    <animate attributeName="opacity" values="1;0" keyTimes="0;1" dur="1s" begin="-0.06349206349206349s" repeatCount="indefinite"></animate>
  </rect>
</g><g transform="rotate(337.14285714285717 50 50)">
  <rect x="46.5" y="34.5" rx="3.5" ry="4.5" width="7" height="9" fill="#000000">
    <animate attributeName="opacity" values="1;0" keyTimes="0;1" dur="1s" begin="-0.047619047619047616s" repeatCount="indefinite"></animate>
  </rect>
</g><g transform="rotate(342.85714285714283 50 50)">
  <rect x="46.5" y="34.5" rx="3.5" ry="4.5" width="7" height="9" fill="#000000">
    <animate attributeName="opacity" values="1;0" keyTimes="0;1" dur="1s" begin="-0.031746031746031744s" repeatCount="indefinite"></animate>
  </rect>
</g><g transform="rotate(348.57142857142856 50 50)">
  <rect x="46.5" y="34.5" rx="3.5" ry="4.5" width="7" height="9" fill="#000000">
    <animate attributeName="opacity" values="1;0" keyTimes="0;1" dur="1s" begin="-0.015873015873015872s" repeatCount="indefinite"></animate>
  </rect>
</g><g transform="rotate(354.2857142857143 50 50)">
  <rect x="46.5" y="34.5" rx="3.5" ry="4.5" width="7" height="9" fill="#000000">
    <animate attributeName="opacity" values="1;0" keyTimes="0;1" dur="1s" begin="0s" repeatCount="indefinite"></animate>
  </rect>
</g>
<!-- [ldio] generated by https://loading.io/ --></svg>