<svg width="284" height="52" viewBox="0 0 284 52" fill="none" xmlns="http://www.w3.org/2000/svg">
<path d="M53.3828 31H51.4141V25.9453H46.3281V31H44.3516V19.625H46.3281V24.3594H51.4141V19.625H53.3828V31ZM62.375 25.9219H57.7031V29.4219H63.1641V31H55.7266V19.625H63.1094V21.2188H57.7031V24.3594H62.375V25.9219ZM64.7734 31V19.625H68.6719C69.9583 19.625 70.9375 19.8828 71.6094 20.3984C72.2812 20.9141 72.6172 21.6823 72.6172 22.7031C72.6172 23.224 72.4766 23.6927 72.1953 24.1094C71.9141 24.526 71.5026 24.849 70.9609 25.0781C71.5755 25.2448 72.0495 25.5599 72.3828 26.0234C72.7214 26.4818 72.8906 27.0339 72.8906 27.6797C72.8906 28.7474 72.5469 29.5677 71.8594 30.1406C71.1771 30.7135 70.1979 31 68.9219 31H64.7734ZM66.75 25.8672V29.4219H68.9453C69.5651 29.4219 70.0495 29.2682 70.3984 28.9609C70.7474 28.6536 70.9219 28.2266 70.9219 27.6797C70.9219 26.4974 70.3177 25.8932 69.1094 25.8672H66.75ZM66.75 24.4141H68.6875C69.3021 24.4141 69.7812 24.276 70.125 24C70.474 23.7188 70.6484 23.3229 70.6484 22.8125C70.6484 22.25 70.487 21.8438 70.1641 21.5938C69.8464 21.3438 69.349 21.2188 68.6719 21.2188H66.75V24.4141ZM81.5156 25.9219H76.8438V29.4219H82.3047V31H74.8672V19.625H82.25V21.2188H76.8438V24.3594H81.5156V25.9219ZM85.8906 26.7734V31H83.9141V19.625H88.2656C89.5365 19.625 90.5443 19.9557 91.2891 20.6172C92.0391 21.2786 92.4141 22.1536 92.4141 23.2422C92.4141 24.3568 92.0469 25.224 91.3125 25.8438C90.5833 26.4635 89.5599 26.7734 88.2422 26.7734H85.8906ZM85.8906 25.1875H88.2656C88.9688 25.1875 89.5052 25.0234 89.875 24.6953C90.2448 24.362 90.4297 23.8828 90.4297 23.2578C90.4297 22.6432 90.2422 22.1536 89.8672 21.7891C89.4922 21.4193 88.9766 21.2292 88.3203 21.2188H85.8906V25.1875ZM103.18 31H101.211V25.9453H96.125V31H94.1484V19.625H96.125V24.3594H101.211V19.625H103.18V31ZM114.602 25.6094C114.602 26.724 114.409 27.7031 114.023 28.5469C113.638 29.3854 113.086 30.0312 112.367 30.4844C111.654 30.9323 110.831 31.1562 109.898 31.1562C108.977 31.1562 108.154 30.9323 107.43 30.4844C106.711 30.0312 106.154 29.388 105.758 28.5547C105.367 27.7214 105.169 26.7604 105.164 25.6719V25.0312C105.164 23.9219 105.359 22.9427 105.75 22.0938C106.146 21.2448 106.701 20.5964 107.414 20.1484C108.133 19.6953 108.956 19.4688 109.883 19.4688C110.81 19.4688 111.63 19.6927 112.344 20.1406C113.062 20.5833 113.617 21.224 114.008 22.0625C114.398 22.8958 114.596 23.8672 114.602 24.9766V25.6094ZM112.625 25.0156C112.625 23.7552 112.385 22.7891 111.906 22.1172C111.432 21.4453 110.758 21.1094 109.883 21.1094C109.029 21.1094 108.359 21.4453 107.875 22.1172C107.396 22.7839 107.151 23.7292 107.141 24.9531V25.6094C107.141 26.8594 107.383 27.8255 107.867 28.5078C108.357 29.1901 109.034 29.5312 109.898 29.5312C110.773 29.5312 111.445 29.1979 111.914 28.5312C112.388 27.8646 112.625 26.8906 112.625 25.6094V25.0156ZM120.555 31V19.625H124.453C125.74 19.625 126.719 19.8828 127.391 20.3984C128.062 20.9141 128.398 21.6823 128.398 22.7031C128.398 23.224 128.258 23.6927 127.977 24.1094C127.695 24.526 127.284 24.849 126.742 25.0781C127.357 25.2448 127.831 25.5599 128.164 26.0234C128.503 26.4818 128.672 27.0339 128.672 27.6797C128.672 28.7474 128.328 29.5677 127.641 30.1406C126.958 30.7135 125.979 31 124.703 31H120.555ZM122.531 25.8672V29.4219H124.727C125.346 29.4219 125.831 29.2682 126.18 28.9609C126.529 28.6536 126.703 28.2266 126.703 27.6797C126.703 26.4974 126.099 25.8932 124.891 25.8672H122.531ZM122.531 24.4141H124.469C125.083 24.4141 125.562 24.276 125.906 24C126.255 23.7188 126.43 23.3229 126.43 22.8125C126.43 22.25 126.268 21.8438 125.945 21.5938C125.628 21.3438 125.13 21.2188 124.453 21.2188H122.531V24.4141ZM130.648 31V19.625H134.547C135.833 19.625 136.812 19.8828 137.484 20.3984C138.156 20.9141 138.492 21.6823 138.492 22.7031C138.492 23.224 138.352 23.6927 138.07 24.1094C137.789 24.526 137.378 24.849 136.836 25.0781C137.451 25.2448 137.924 25.5599 138.258 26.0234C138.596 26.4818 138.766 27.0339 138.766 27.6797C138.766 28.7474 138.422 29.5677 137.734 30.1406C137.052 30.7135 136.073 31 134.797 31H130.648ZM132.625 25.8672V29.4219H134.82C135.44 29.4219 135.924 29.2682 136.273 28.9609C136.622 28.6536 136.797 28.2266 136.797 27.6797C136.797 26.4974 136.193 25.8932 134.984 25.8672H132.625ZM132.625 24.4141H134.562C135.177 24.4141 135.656 24.276 136 24C136.349 23.7188 136.523 23.3229 136.523 22.8125C136.523 22.25 136.362 21.8438 136.039 21.5938C135.721 21.3438 135.224 21.2188 134.547 21.2188H132.625V24.4141ZM147.391 25.9219H142.719V29.4219H148.18V31H140.742V19.625H148.125V21.2188H142.719V24.3594H147.391V25.9219ZM160.25 33.7969H158.375V31H150.883V33.7969H148.977L148.914 29.4219H149.828C150.281 28.9844 150.643 28.349 150.914 27.5156C151.185 26.6771 151.359 25.7292 151.438 24.6719L151.734 19.625H158.906V29.4219H160.352L160.25 33.7969ZM152.062 29.4219H156.938V21.2188H153.617L153.43 24.4219C153.289 26.5625 152.833 28.2292 152.062 29.4219ZM168.484 25.9219H163.812V29.4219H169.273V31H161.836V19.625H169.219V21.2188H163.812V24.3594H168.484V25.9219ZM162.805 17.8516C162.805 17.5911 162.891 17.3724 163.062 17.1953C163.24 17.0182 163.482 16.9297 163.789 16.9297C164.096 16.9297 164.339 17.0182 164.516 17.1953C164.693 17.3724 164.781 17.5911 164.781 17.8516C164.781 18.112 164.693 18.3307 164.516 18.5078C164.339 18.6849 164.096 18.7734 163.789 18.7734C163.482 18.7734 163.24 18.6849 163.062 18.5078C162.891 18.3307 162.805 18.112 162.805 17.8516ZM166.375 17.8594C166.375 17.599 166.461 17.3802 166.633 17.2031C166.81 17.026 167.052 16.9375 167.359 16.9375C167.667 16.9375 167.909 17.026 168.086 17.2031C168.263 17.3802 168.352 17.599 168.352 17.8594C168.352 18.1198 168.263 18.3385 168.086 18.5156C167.909 18.6927 167.667 18.7812 167.359 18.7812C167.052 18.7812 166.81 18.6927 166.633 18.5156C166.461 18.3385 166.375 18.1198 166.375 17.8594ZM179.914 31H177.945V25.9453H172.859V31H170.883V19.625H172.859V24.3594H177.945V19.625H179.914V31ZM195.273 31H193.305V25.9453H188.219V31H186.242V19.625H188.219V24.3594H193.305V19.625H195.273V31ZM206.695 25.6094C206.695 26.724 206.503 27.7031 206.117 28.5469C205.732 29.3854 205.18 30.0312 204.461 30.4844C203.747 30.9323 202.924 31.1562 201.992 31.1562C201.07 31.1562 200.247 30.9323 199.523 30.4844C198.805 30.0312 198.247 29.388 197.852 28.5547C197.461 27.7214 197.263 26.7604 197.258 25.6719V25.0312C197.258 23.9219 197.453 22.9427 197.844 22.0938C198.24 21.2448 198.794 20.5964 199.508 20.1484C200.227 19.6953 201.049 19.4688 201.977 19.4688C202.904 19.4688 203.724 19.6927 204.438 20.1406C205.156 20.5833 205.711 21.224 206.102 22.0625C206.492 22.8958 206.69 23.8672 206.695 24.9766V25.6094ZM204.719 25.0156C204.719 23.7552 204.479 22.7891 204 22.1172C203.526 21.4453 202.852 21.1094 201.977 21.1094C201.122 21.1094 200.453 21.4453 199.969 22.1172C199.49 22.7839 199.245 23.7292 199.234 24.9531V25.6094C199.234 26.8594 199.477 27.8255 199.961 28.5078C200.451 29.1901 201.128 29.5312 201.992 29.5312C202.867 29.5312 203.539 29.1979 204.008 28.5312C204.482 27.8646 204.719 26.8906 204.719 25.6094V25.0156ZM211.227 19.625L214.508 28.3438L217.781 19.625H220.336V31H218.367V27.25L218.562 22.2344L215.203 31H213.789L210.438 22.2422L210.633 27.25V31H208.664V19.625H211.227ZM229.328 25.9219H224.656V29.4219H230.117V31H222.68V19.625H230.062V21.2188H224.656V24.3594H229.328V25.9219ZM233.703 26.7734V31H231.727V19.625H236.078C237.349 19.625 238.357 19.9557 239.102 20.6172C239.852 21.2786 240.227 22.1536 240.227 23.2422C240.227 24.3568 239.859 25.224 239.125 25.8438C238.396 26.4635 237.372 26.7734 236.055 26.7734H233.703ZM233.703 25.1875H236.078C236.781 25.1875 237.318 25.0234 237.688 24.6953C238.057 24.362 238.242 23.8828 238.242 23.2578C238.242 22.6432 238.055 22.1536 237.68 21.7891C237.305 21.4193 236.789 21.2292 236.133 21.2188H233.703V25.1875Z" fill="#EA0000"/>
</svg>
